<svg width="105" height="107" viewBox="0 0 105 107" fill="none" xmlns="http://www.w3.org/2000/svg">
<g clip-path="url(#clip0_185_235)">
<path d="M98.3771 0.75L90.0228 96.1389L52.4699 106.75L15.0205 96.1539L6.67505 0.75H98.3771Z" fill="#264DE4"/>
<path d="M52.526 98.6393L82.8705 90.0649L90.0098 8.55067H52.526V98.6393Z" fill="#2965F1"/>
<path d="M52.526 43.9346H25.8068L26.8357 55.6354H52.526V43.9346Z" fill="#EBEBEB"/>
<path d="M52.5261 20.2518H52.4864H23.7394L24.783 31.9528H52.5261V20.2518Z" fill="#EBEBEB"/>
<path d="M27.3486 61.4861L28.957 79.8581L52.4732 86.5119L52.526 86.497V74.3232L52.4757 74.3368L39.6902 70.8181L38.8729 61.4861H32.6601H27.3486Z" fill="#EBEBEB"/>
<path d="M66.6228 55.6354L65.2903 70.8106L52.4863 74.333V86.5063L76.0212 79.8582L76.1939 77.8813L78.8916 47.0767L79.1717 43.9347L81.2442 20.2518H52.4863V31.9528H68.663L67.6184 43.9347H52.4863V55.6354H66.6228Z" fill="white"/>
</g>
<defs>
<clipPath id="clip0_185_235">
<rect width="104" height="106" fill="white" transform="translate(0.5 0.75)"/>
</clipPath>
</defs>
</svg>
