<svg width="125" height="120" viewBox="0 0 125 120" fill="none" xmlns="http://www.w3.org/2000/svg">
<path d="M64.5841 47.5541H75.6219V58.4049H81.2026C83.8126 58.3934 86.4035 57.9761 88.875 57.1691C90.1729 56.756 91.4224 56.2137 92.6032 55.5512C91.0927 53.5406 90.1971 51.1639 90.0174 48.6896C89.5529 45.0789 90.5172 41.4323 92.7189 38.4734L93.8768 37.182L95.2584 38.2508C98.9222 40.8337 101.405 44.6795 102.186 48.9828C106.446 47.7248 111.05 48.1369 114.995 50.1295L116.512 50.9682L115.713 52.4525C114.097 55.0686 111.71 57.1644 108.854 58.4745C105.997 59.7845 102.801 60.2498 99.6697 59.8113C90.0984 82.7004 69.2925 93.5363 44.0599 93.5363C31.023 93.5363 19.0666 88.8494 12.2548 77.7314L12.1429 77.5496L11.1704 75.6236C8.92713 70.719 8.0506 65.3372 8.62703 60.008L8.7814 58.4012H18.2176V47.5541H29.2592V36.9297H51.3387V26.3238H64.5841V47.5541Z" fill="#0096E6"/>
<path d="M47.0856 91.7291C41.6856 89.5166 37.3563 85.4214 34.9672 80.266C32.1127 81.0004 29.1822 81.4273 26.2296 81.5389C24.9431 81.6081 23.5988 81.6428 22.1965 81.6428C20.5704 81.6428 18.8582 81.597 17.0597 81.5055C20.5322 84.9819 24.7423 87.6989 29.4038 89.472C34.0653 91.245 39.0691 92.0325 44.0753 91.781C45.0839 91.781 46.0873 91.7637 47.0856 91.7291Z" fill="white"/>
<path d="M28.0744 50.0887H28.8463V57.7592H28.0744V50.0887ZM26.6232 50.0887H27.3951V57.7592H26.6078V50.0887H26.6232ZM25.1721 50.0887H25.944V57.7592H25.1721V50.0887ZM23.721 50.0887H24.4929V57.7592H23.721V50.0887ZM22.2699 50.0887H23.0418V57.7592H22.2699V50.0887ZM20.8496 50.0887H21.6215V57.7592H20.8496V50.0887ZM20.0469 49.3242H29.6258V58.5236H20.0469V49.3242ZM31.0808 38.7072H40.6521V47.9066H31.0963L31.0808 38.7072ZM39.0967 39.4754H39.8686V47.1422H39.0967V39.4754ZM37.6456 39.4754H38.4175V47.1422H37.6456V39.4754ZM36.1945 39.4754H36.9664V47.1422H36.1945V39.4754ZM34.7434 39.4754H35.5153V47.1422H34.7434V39.4754ZM33.2923 39.4754H34.0641V47.1422H33.2923V39.4754ZM31.872 39.4754H32.6439V47.1422H31.872V39.4754ZM31.0731 49.3205H40.6444V58.5236H31.0963V49.3242L31.0731 49.3205ZM39.089 50.0887H39.8609V57.7592H39.089V50.0887ZM37.6379 50.0887H38.4098V57.7592H37.6379V50.0887ZM36.1868 50.0887H36.9587V57.7592H36.1868V50.0887ZM34.7357 50.0887H35.5075V57.7592H34.7357V50.0887ZM33.2845 50.0887H34.0564V57.7592H33.2845V50.0887ZM31.8643 50.0887H32.6362V57.7592H31.8643V50.0887ZM42.1071 49.3205H51.6937V58.5236H42.1225V49.3242L42.1071 49.3205ZM50.1191 50.0887H50.9219V57.7592H50.15L50.1191 50.0887ZM48.668 50.0887H49.4399V57.7592H48.668V50.0887ZM47.2169 50.0887H47.9887V57.7592H47.2169V50.0887ZM45.7657 50.0887H46.5376V57.7592H45.7657V50.0887ZM44.3146 50.0887H45.0865V57.7592H44.3146V50.0887ZM42.8944 50.0887H43.6662V57.7592H42.8944V50.0887ZM42.0993 38.7072H51.6937V47.9066H42.1225V38.7072H42.0993ZM50.1114 39.4754H50.9219V47.1422H50.15L50.1114 39.4754ZM48.6603 39.4754H49.4322V47.1422H48.6603V39.4754ZM47.2092 39.4754H47.981V47.1422H47.2092V39.4754ZM45.758 39.4754H46.5299V47.1422H45.758V39.4754ZM44.3069 39.4754H45.0788V47.1422H44.3069V39.4754ZM42.8867 39.4754H43.6585V47.1422H42.8867V39.4754ZM53.1294 49.3205H62.6968V58.5236H53.1256V49.3242L53.1294 49.3205ZM61.1415 50.0887H61.9134V57.7592H61.1415V50.0887ZM59.6904 50.0887H60.4623V57.7592H59.6904V50.0887ZM58.2392 50.0887H59.0111V57.7592H58.2392V50.0887ZM56.7881 50.0887H57.56V57.7592H56.7881V50.0887ZM55.337 50.0887H56.1089V57.7592H55.337V50.0887ZM53.9168 50.0887H54.6578V57.7592H53.8859V50.0887H53.9168ZM53.1217 38.7072H62.6891V47.9066H53.1179L53.1217 38.7072ZM61.1338 39.4754H61.9057V47.1422H61.1338V39.4754ZM59.6827 39.4754H60.4545V47.1422H59.6827V39.4754ZM58.2315 39.4754H59.0034V47.1422H58.2315V39.4754ZM56.7804 39.4754H57.5523V47.1422H56.7804V39.4754ZM55.3293 39.4754H56.1012V47.1422H55.3293V39.4754ZM53.909 39.4754H54.65V47.1422H53.8782V39.4754H53.909ZM53.114 28.0939H62.6814V37.3008H53.1101L53.114 28.0939ZM61.1261 28.8584H61.8979V36.5252H61.1261V28.8584ZM59.6749 28.8584H60.4468V36.5252H59.6749V28.8584ZM58.2238 28.8584H58.9957V36.5252H58.2238V28.8584ZM56.7727 28.8584H57.5446V36.5252H56.7727V28.8584ZM55.3216 28.8584H56.0934V36.5252H55.3216V28.8584ZM53.9013 28.8584H54.6423V36.5252H53.8704V28.8584H53.9013ZM64.1441 49.3205H73.7115V58.5236H64.1402V49.3242L64.1441 49.3205ZM72.1562 50.0887H72.9087V57.7592H72.1369V50.0887H72.1562ZM70.705 50.0887H71.5001V57.7592H70.705V50.0887ZM69.2539 50.0887H70.0258V57.7592H69.2539V50.0887ZM67.8028 50.0887H68.5747V57.7592H67.8028V50.0887ZM66.3517 50.0887H67.1235V57.7592H66.3324V50.0887H66.3517ZM64.9314 50.0887H65.7033V57.7592H64.9546V50.0887H64.9314Z" fill="white"/>
<path d="M40.0693 73.4379C40.5914 73.4379 41.1017 73.5868 41.5359 73.8657C41.97 74.1446 42.3083 74.541 42.5081 75.0048C42.7079 75.4686 42.7602 75.979 42.6583 76.4714C42.5565 76.9637 42.3051 77.416 41.9359 77.771C41.5667 78.126 41.0963 78.3677 40.5843 78.4657C40.0722 78.5636 39.5414 78.5134 39.059 78.3212C38.5767 78.1291 38.1644 77.8038 37.8743 77.3864C37.5843 76.9689 37.4294 76.4782 37.4294 75.9762C37.4294 75.303 37.7076 74.6574 38.2026 74.1813C38.6977 73.7053 39.3691 73.4379 40.0693 73.4379ZM40.0693 74.1578C40.3029 74.1576 40.5345 74.1991 40.7524 74.2803C40.6487 74.3372 40.5601 74.4165 40.4937 74.5119C40.4273 74.6074 40.3848 74.7163 40.3695 74.8302C40.3543 74.9441 40.3668 75.0598 40.406 75.1683C40.4452 75.2768 40.51 75.375 40.5954 75.4553C40.6808 75.5356 40.7843 75.5958 40.898 75.6311C41.0116 75.6663 41.1322 75.6758 41.2503 75.6586C41.3684 75.6415 41.4808 75.5983 41.5785 75.5323C41.6763 75.4663 41.7568 75.3795 41.8137 75.2785C41.9711 75.6383 42.0039 76.0372 41.9073 76.4163C41.8107 76.7954 41.5898 77.1346 41.2773 77.3836C40.9647 77.6327 40.5771 77.7784 40.1718 77.7993C39.7664 77.8202 39.3648 77.7151 39.0264 77.4996C38.6879 77.2841 38.4306 76.9696 38.2924 76.6026C38.1542 76.2356 38.1425 75.8356 38.259 75.4617C38.3755 75.0878 38.6141 74.7599 38.9394 74.5264C39.2647 74.2929 39.6595 74.1663 40.0654 74.1652L40.0693 74.1578Z" fill="white"/>
</svg>
