<svg width="41" height="34" viewBox="0 0 41 34" fill="none" xmlns="http://www.w3.org/2000/svg">
<path d="M40.2232 11.2271C40.5355 10.9526 41 11.2094 41 11.6432V29.75C41 32.0964 39.2783 34 37.1562 34H3.84375C1.72168 34 0 32.0964 0 29.75V11.6521C0 11.2094 0.456445 10.9615 0.776758 11.2359C2.57051 12.7766 4.94883 14.7333 13.1168 21.2943C14.8064 22.6578 17.6572 25.5266 20.5 25.5089C23.3588 25.5354 26.2656 22.6047 27.8912 21.2943C36.0592 14.7333 38.4295 12.7677 40.2232 11.2271ZM20.5 22.6667C22.3578 22.7021 25.0324 20.0813 26.3777 19.001C37.0041 10.4745 37.8129 9.73073 40.2633 7.60573C40.7277 7.20729 41 6.5875 41 5.93229V4.25C41 1.90365 39.2783 0 37.1562 0H3.84375C1.72168 0 0 1.90365 0 4.25V5.93229C0 6.5875 0.272266 7.19844 0.736719 7.60573C3.18711 9.72188 3.9959 10.4745 14.6223 19.001C15.9676 20.0813 18.6422 22.7021 20.5 22.6667Z" fill="white"/>
</svg>
