<svg width="77" height="110" viewBox="0 0 77 110" fill="none" xmlns="http://www.w3.org/2000/svg">
<g clip-path="url(#clip0_212_110)">
<path d="M19.254 110C29.8778 110 38.5001 101.787 38.5001 91.6667V73.3334H19.254C8.63009 73.3334 0.0078125 81.5467 0.0078125 91.6667C0.0078125 101.787 8.63009 110 19.254 110Z" fill="#0ACF83"/>
<path d="M0.0078125 55C0.0078125 44.88 8.63009 36.6666 19.254 36.6666H38.5001V73.3333H19.254C8.63009 73.3333 0.0078125 65.12 0.0078125 55Z" fill="#A259FF"/>
<path d="M0.0078125 18.3333C0.0078125 8.21333 8.63009 0 19.254 0H38.5001V36.6667H19.254C8.63009 36.6667 0.0078125 28.4533 0.0078125 18.3333Z" fill="#F24E1E"/>
<path d="M38.5 0H57.7461C68.37 0 76.9923 8.21333 76.9923 18.3333C76.9923 28.4533 68.37 36.6667 57.7461 36.6667H38.5V0Z" fill="#FF7262"/>
<path d="M76.9923 55C76.9923 65.12 68.37 73.3333 57.7461 73.3333C47.1223 73.3333 38.5 65.12 38.5 55C38.5 44.88 47.1223 36.6666 57.7461 36.6666C68.37 36.6666 76.9923 44.88 76.9923 55Z" fill="#1ABCFE"/>
</g>
<defs>
<clipPath id="clip0_212_110">
<rect width="77" height="110" fill="white"/>
</clipPath>
</defs>
</svg>
