<svg width="44" height="44" viewBox="0 0 44 44" fill="none" xmlns="http://www.w3.org/2000/svg">
<path d="M21.5219 3C11.2218 3 2.86957 11.7217 2.86957 22.481C2.86957 31.0883 8.21403 38.3906 15.6252 40.9665C16.5574 41.1468 16.8996 40.5439 16.8996 40.0294C16.8996 39.5648 16.8823 38.0302 16.8743 36.4024C11.6852 37.5809 10.5902 34.1039 10.5902 34.1039C9.74172 31.8522 8.5192 31.2534 8.5192 31.2534C6.82687 30.0443 8.64676 30.0692 8.64676 30.0692C10.5198 30.2066 11.506 32.0767 11.506 32.0767C13.1696 35.0549 15.8695 34.1939 16.9339 33.6961C17.1013 32.437 17.5847 31.5776 18.1181 31.0912C13.9752 30.5986 9.62003 28.9281 9.62003 21.4636C9.62003 19.3367 10.3487 17.5988 11.5418 16.2346C11.3482 15.7439 10.7097 13.7625 11.7225 11.0791C11.7225 11.0791 13.2888 10.5556 16.8533 13.076C18.3411 12.6444 19.9368 12.4279 21.5219 12.4205C23.107 12.4279 24.7039 12.6444 26.1946 13.076C29.7546 10.5556 31.3188 11.0791 31.3188 11.0791C32.3341 13.7625 31.6953 15.7439 31.5016 16.2346C32.6976 17.5988 33.4213 19.3367 33.4213 21.4636C33.4213 28.9459 29.0578 30.5934 24.9044 31.0757C25.5734 31.6802 26.1695 32.8658 26.1695 34.6833C26.1695 37.2899 26.1479 39.3877 26.1479 40.0294C26.1479 40.5478 26.4837 41.1552 27.4291 40.9639C34.8363 38.3851 40.1739 31.0854 40.1739 22.481C40.1739 11.7217 31.8229 3 21.5219 3ZM9.85547 30.7511C9.81439 30.8479 9.6686 30.8769 9.53579 30.8105C9.4005 30.7469 9.32452 30.615 9.36838 30.5179C9.40853 30.4182 9.55463 30.3905 9.68961 30.4572C9.8252 30.5208 9.90242 30.654 9.85547 30.7511ZM10.773 31.6062C10.684 31.6923 10.5101 31.6523 10.3921 31.5162C10.2701 31.3803 10.2473 31.1987 10.3374 31.1113C10.4292 31.0252 10.5978 31.0655 10.7201 31.2013C10.8421 31.3387 10.8659 31.5191 10.773 31.6062ZM11.4024 32.7002C11.2881 32.7831 11.1012 32.7053 10.9857 32.5321C10.8714 32.3588 10.8714 32.1511 10.9882 32.0679C11.104 31.9846 11.2881 32.0595 11.4052 32.2314C11.5191 32.4076 11.5191 32.6153 11.4024 32.7002ZM12.4669 33.9671C12.3647 34.0849 12.1469 34.0533 11.9875 33.8926C11.8244 33.7355 11.779 33.5126 11.8816 33.3949C11.985 33.2768 12.204 33.31 12.3647 33.4694C12.5265 33.6262 12.5759 33.8507 12.4669 33.9671ZM13.8427 34.3949C13.7976 34.5475 13.5878 34.6168 13.3766 34.552C13.1656 34.4852 13.0275 34.3065 13.0702 34.1523C13.114 33.9987 13.3247 33.9265 13.5375 33.9958C13.7481 34.0623 13.8865 34.2397 13.8427 34.3949ZM15.4083 34.5763C15.4136 34.7369 15.2344 34.8702 15.0127 34.8731C14.7897 34.8782 14.6093 34.7482 14.6068 34.5902C14.6068 34.4279 14.7819 34.296 15.0049 34.2921C15.2267 34.2876 15.4083 34.4166 15.4083 34.5763ZM16.9464 34.5147C16.973 34.6715 16.8189 34.8325 16.5987 34.8754C16.3821 34.9167 16.1817 34.8199 16.1542 34.6644C16.1273 34.5037 16.2842 34.3428 16.5004 34.3012C16.721 34.2612 16.9183 34.3554 16.9464 34.5147Z" fill="white"/>
</svg>
