<svg width="96" height="118" viewBox="0 0 96 118" fill="none" xmlns="http://www.w3.org/2000/svg">
<g clip-path="url(#clip0_212_121)">
<path d="M30.9578 91.219C30.9578 91.219 26.0084 93.8366 34.4801 94.7224C44.7434 95.7872 49.9888 95.6345 61.299 93.6877C61.299 93.6877 64.2726 95.3833 68.4253 96.852C43.0709 106.734 11.0432 96.2796 30.9578 91.219Z" fill="#5382A1"/>
<path d="M27.8596 78.323C27.8596 78.323 22.3083 82.06 30.7863 82.8575C41.7499 83.8862 50.408 83.9703 65.39 81.3467C65.39 81.3467 67.4622 83.2572 70.7206 84.3021C40.0655 92.4542 5.92129 84.9449 27.8596 78.323Z" fill="#5382A1"/>
<path d="M53.9782 56.4473C60.2255 62.9886 52.3368 68.8749 52.3368 68.8749C52.3368 68.8749 68.1998 61.4276 60.9146 52.1016C54.1105 43.4047 48.8926 39.0835 77.14 24.1846C77.14 24.1846 32.8009 34.2556 53.9782 56.4473Z" fill="#E76F00"/>
<path d="M87.5115 100.758C87.5115 100.758 91.1742 103.502 83.4778 105.625C68.8428 109.657 22.5656 110.875 9.70998 105.786C5.08872 103.958 13.7549 101.42 16.4809 100.888C19.3239 100.327 20.9486 100.432 20.9486 100.432C15.8093 97.1393 -12.2698 106.897 6.68581 109.691C58.3806 117.316 100.92 106.258 87.5115 100.758Z" fill="#5382A1"/>
<path d="M33.3378 64.9613C33.3378 64.9613 9.7983 70.046 25.0019 71.8925C31.4213 72.6741 44.2183 72.4973 56.1384 71.589C65.8801 70.8416 75.662 69.2527 75.662 69.2527C75.662 69.2527 72.2269 70.5905 69.7417 72.1338C45.8377 77.8512 -0.340343 75.1914 12.9537 69.3431C24.1966 64.4006 33.3378 64.9613 33.3378 64.9613Z" fill="#5382A1"/>
<path d="M75.5649 86.4273C99.8644 74.9438 88.6293 63.9083 80.7873 65.395C78.8652 65.7588 78.0082 66.0741 78.0082 66.0741C78.0082 66.0741 78.7217 65.0575 80.0846 64.6175C95.5985 59.6572 107.53 79.2472 75.0765 87.006C75.0765 87.006 75.4525 86.7006 75.5649 86.4273Z" fill="#5382A1"/>
<path d="M60.9146 0.126709C60.9146 0.126709 74.3721 12.3696 48.1508 31.1957C27.124 46.2975 43.356 54.9081 48.1421 64.7461C35.8684 54.6751 26.8611 45.8095 32.9039 37.5583C41.7733 25.4462 66.3444 19.5738 60.9146 0.126709Z" fill="#E76F00"/>
<path d="M35.7257 117.545C59.0502 118.903 94.8676 116.791 95.7159 106.754C95.7159 106.754 94.0853 110.559 76.4394 113.581C56.5315 116.988 31.9778 116.59 17.4148 114.407C17.4148 114.407 20.396 116.651 35.7257 117.545Z" fill="#5382A1"/>
</g>
<defs>
<clipPath id="clip0_212_121">
<rect width="96" height="118" fill="white"/>
</clipPath>
</defs>
</svg>
