<svg width="107" height="101" viewBox="0 0 107 101" fill="none" xmlns="http://www.w3.org/2000/svg">
<path d="M0.5 0.25H106.5V100.25H0.5" fill="#BAAF54"/>
<path d="M67.5781 72.5156C69.9245 76.2917 73.0299 78.1797 76.8945 78.1797C81.7253 78.1797 84.1406 76.4219 84.1406 72.9062C84.1406 70.7578 81.0352 68.8047 76.0664 66.8516C66.819 63.987 62.2643 59.1042 62.4023 52.2031C62.4023 45.1719 67.9922 39.7031 76.8945 39.7031C83.5195 39.7031 88.2122 42.2422 90.9727 47.3203L83.3125 52.0078C81.6562 49.1432 79.5169 47.776 76.8945 47.9062C73.8581 48.0365 72.2708 49.4036 72.1328 52.0078C72.1328 54.7422 73.9961 55.9141 80.207 58.4531C89.1094 61.7734 94.0781 65.4844 94.0781 73.4922C93.6641 81.9557 88.2122 86.3177 77.7227 86.5781C69.0273 86.5781 62.8854 83.388 59.2969 77.0078L67.5781 72.5156ZM32.3828 73.2969C34.0391 75.8359 35.0742 78.1797 39.2148 78.1797C42.5273 78.1797 44.1836 76.2266 44.1836 72.3203V39.8984H54.1211V71.9297C53.9831 81.1745 49.0143 85.862 39.2148 85.9922C31.8997 85.862 26.931 82.9974 24.3086 77.3984L32.3828 73.2969Z" fill="white"/>
</svg>
