<svg width="44" height="44" viewBox="0 0 44 44" fill="none" xmlns="http://www.w3.org/2000/svg">
<g clip-path="url(#clip0_23_343)">
<path d="M22 43.9995C34.1503 43.9995 44 34.1498 44 21.9995C44 9.84925 34.1503 -0.000488281 22 -0.000488281C9.84974 -0.000488281 0 9.84925 0 21.9995C0 34.1498 9.84974 43.9995 22 43.9995Z" fill="#007AB9"/>
<path d="M35.1448 23.7699V32.84H29.8862V24.3778C29.8862 22.253 29.1269 20.8019 27.2229 20.8019C25.77 20.8019 24.9068 21.7788 24.5256 22.7248C24.3872 23.0628 24.3515 23.5322 24.3515 24.0064V32.8396H19.0925C19.0925 32.8396 19.163 18.5073 19.0925 17.0238H24.3519V19.265C24.3413 19.2827 24.3264 19.2999 24.317 19.3168H24.3519V19.265C25.0507 18.1897 26.297 16.6524 29.0912 16.6524C32.551 16.6524 35.1448 18.9129 35.1448 23.7699ZM13.5911 9.39996C11.7922 9.39996 10.6153 10.5808 10.6153 12.1322C10.6153 13.6507 11.7581 14.8656 13.5221 14.8656H13.5562C15.3904 14.8656 16.5308 13.6507 16.5308 12.1322C16.4959 10.5808 15.3904 9.39996 13.5911 9.39996ZM10.9279 32.84H16.1849V17.0238H10.9279V32.84Z" fill="#F1F2F2"/>
</g>
<defs>
<clipPath id="clip0_23_343">
<rect width="44" height="44" fill="white"/>
</clipPath>
</defs>
</svg>
