<svg width="103" height="115" viewBox="0 0 103 115" fill="none" xmlns="http://www.w3.org/2000/svg">
<g clip-path="url(#clip0_185_127)">
<path d="M48.7415 1.65382L3.0135 27.2732C2.17336 27.7431 1.47558 28.4196 0.990443 29.2345C0.505301 30.0494 0.249916 30.974 0.25 31.9152V83.1895C0.249769 84.1308 0.505093 85.0554 0.99025 85.8704C1.47541 86.6853 2.17326 87.3617 3.0135 87.8315L48.7451 113.471C49.5854 113.94 50.538 114.187 51.5076 114.187C52.4771 114.187 53.4297 113.94 54.27 113.471L99.9932 87.8315C100.831 87.3598 101.527 86.6828 102.011 85.8682C102.495 85.0535 102.75 84.1299 102.75 83.1895V31.9152C102.75 30.9736 102.494 30.0487 102.008 29.2338C101.522 28.4188 100.823 27.7426 99.9824 27.2732L54.2652 1.65382C53.4229 1.18447 52.4686 0.9375 51.4974 0.9375C50.5261 0.9375 49.5718 1.18447 48.7295 1.65382" fill="url(#paint0_linear_185_127)"/>
<path d="M1.38318 86.445C1.82648 87.0068 2.37982 87.478 3.01137 87.8315L42.2377 109.824L48.7718 113.47C49.7368 114.008 50.8465 114.253 51.9564 114.17C52.3238 114.141 52.6873 114.076 53.0418 113.978L101.271 28.2603C100.896 27.8694 100.463 27.5355 99.9856 27.2699L70.0436 10.4869L54.2162 1.64754C53.7667 1.39956 53.2847 1.21145 52.7835 1.08827L1.38318 86.445Z" fill="url(#paint1_linear_185_127)"/>
<path d="M50.9514 0.967179C50.1737 1.04337 49.4212 1.27734 48.7427 1.65392L3.14478 27.2001L52.3136 114.128C53.0056 114.033 53.6724 113.81 54.2781 113.471L100.006 87.8316C100.696 87.4437 101.292 86.9157 101.753 86.2837C102.214 85.6516 102.529 84.9305 102.676 84.1695L52.5522 1.0541C52.1839 0.983028 51.8094 0.947203 51.4339 0.947139C51.2819 0.947139 51.1298 0.95413 50.9778 0.968112" fill="url(#paint2_linear_185_127)"/>
</g>
<defs>
<linearGradient id="paint0_linear_185_127" x1="74.7921" y1="11.4022" x2="30.3985" y2="104.76" gradientUnits="userSpaceOnUse">
<stop offset="0.3" stop-color="#3E863D"/>
<stop offset="0.5" stop-color="#55934F"/>
<stop offset="0.8" stop-color="#5AAD45"/>
</linearGradient>
<linearGradient id="paint1_linear_185_127" x1="5.37298" y1="91.6786" x2="96.6001" y2="22.1337" gradientUnits="userSpaceOnUse">
<stop offset="0.57" stop-color="#3E863D"/>
<stop offset="0.72" stop-color="#619857"/>
<stop offset="1" stop-color="#76AC64"/>
</linearGradient>
<linearGradient id="paint2_linear_185_127" x1="3.14478" y1="57.5377" x2="102.676" y2="57.5377" gradientUnits="userSpaceOnUse">
<stop offset="0.16" stop-color="#6BBF47"/>
<stop offset="0.38" stop-color="#79B461"/>
<stop offset="0.47" stop-color="#75AC64"/>
<stop offset="0.7" stop-color="#659E5A"/>
<stop offset="0.9" stop-color="#3E863D"/>
</linearGradient>
<clipPath id="clip0_185_127">
<rect width="102.5" height="113.25" fill="white" transform="translate(0.25 0.9375)"/>
</clipPath>
</defs>
</svg>
