<svg width="112" height="118" viewBox="0 0 112 118" fill="none" xmlns="http://www.w3.org/2000/svg">
<path d="M110.778 47.5305C110.778 40.4609 101.613 33.7609 87.5608 29.6061C90.8038 15.7711 89.3626 4.76397 83.0117 1.23994C81.5479 0.413313 79.8368 0.0217426 77.9676 0.0217426V4.87274C79.0034 4.87274 79.8368 5.06852 80.5347 5.4383C83.5973 7.13504 84.9262 13.5958 83.8899 21.9055C83.6427 23.9503 83.2373 26.1038 82.7418 28.3009C78.3276 27.2567 73.5085 26.4519 68.4417 25.9298C65.4018 21.9055 62.249 18.2509 59.0735 15.0532C66.4149 8.462 73.3061 4.85095 77.9902 4.85095V0C71.797 0 63.6902 4.26364 55.4932 11.6597C47.2958 4.30713 39.189 0.0870211 32.9963 0.0870211V4.93797C37.6577 4.93797 44.5711 8.52728 51.9124 15.075C48.7597 18.2727 45.6069 21.9055 42.6117 25.9298C37.5223 26.4519 32.7032 27.2567 28.2895 28.3226C27.7714 26.1474 27.3887 24.0373 27.1182 22.0142C26.0603 13.7045 27.366 7.2438 30.4065 5.52532C31.0818 5.13375 31.96 4.95976 32.9963 4.95976V0.108764C31.1044 0.108764 29.3928 0.500334 27.9068 1.32696C21.5786 4.85095 20.1601 15.8363 23.4252 29.6279C9.41813 33.8045 0.297729 40.4828 0.297729 47.5305C0.297729 54.6007 9.46314 61.3007 23.5153 65.4552C20.2724 79.2905 21.7136 90.2973 28.0644 93.8214C29.5283 94.6479 31.2394 95.0394 33.1312 95.0394C39.324 95.0394 47.4313 90.7759 55.6282 83.3799C63.8251 90.7326 71.9324 94.9528 78.1252 94.9528C80.0165 94.9528 81.7281 94.5613 83.2146 93.7344C89.5424 90.2102 90.9614 79.2249 87.6958 65.4338C101.658 61.2788 110.778 54.5788 110.778 47.5305ZM81.4582 33.0213C80.6248 35.8277 79.589 38.7204 78.4177 41.6137C77.4947 39.8738 76.5264 38.1333 75.4679 36.3929C74.4321 34.6528 73.3283 32.9561 72.225 31.3028C75.4226 31.7596 78.5079 32.3253 81.4582 33.0213ZM71.1438 56.1884C69.3874 59.1254 67.5862 61.9097 65.717 64.4984C62.3613 64.781 58.9613 64.9333 55.5381 64.9333C52.1375 64.9333 48.737 64.781 45.4045 64.5198C43.5353 61.9311 41.7109 59.1687 39.9545 56.2536C38.2429 53.4041 36.6894 50.5108 35.2704 47.5962C36.6667 44.6811 38.2429 41.7659 39.9323 38.9165C41.6887 35.9799 43.4899 33.1954 45.3591 30.6067C48.7149 30.3239 52.1149 30.1717 55.5381 30.1717C58.9386 30.1717 62.3391 30.3239 65.6717 30.585C67.5409 33.1736 69.3653 35.9362 71.1217 38.8513C72.8333 41.7008 74.3868 44.594 75.8058 47.5091C74.3868 50.4238 72.8333 53.3389 71.1438 56.1884ZM78.4177 53.3608C79.5999 56.1957 80.6371 59.0849 81.5257 62.0182C78.5754 62.7142 75.4679 63.3018 72.2476 63.7586C73.3509 62.0838 74.4542 60.3653 75.4906 58.603C76.5264 56.863 77.4947 55.1007 78.4177 53.3608ZM55.5829 76.5714C53.4886 74.4827 51.3943 72.1552 49.3226 69.6102C51.3495 69.6973 53.4211 69.7625 55.5154 69.7625C57.6324 69.7625 59.7267 69.7192 61.7761 69.6102C59.8431 72.0367 57.7757 74.3605 55.5829 76.5714ZM38.8285 63.7586C35.6309 63.3018 32.5456 62.7361 29.5958 62.04C30.4286 59.2339 31.465 56.3406 32.6357 53.4474C33.5593 55.1878 34.5276 56.9282 35.5856 58.6682C36.6441 60.4086 37.7252 62.1052 38.8285 63.7586ZM55.4706 18.4902C57.5649 20.5785 59.6592 22.9061 61.7308 25.4512C59.704 25.3642 57.6324 25.299 55.5381 25.299C53.4211 25.299 51.3268 25.3425 49.2778 25.4512C51.2107 23.0248 53.278 20.7011 55.4706 18.4902ZM38.8058 31.3028C37.7025 32.9778 36.5992 34.6963 35.5634 36.4581C34.5276 38.1985 33.5593 39.9389 32.6357 41.6789C31.4535 38.844 30.4164 35.9547 29.5283 33.0213C32.4781 32.347 35.5856 31.7596 38.8058 31.3028ZM18.4258 58.5378C10.454 55.253 5.29706 50.9462 5.29706 47.5305C5.29706 44.1154 10.454 39.7867 18.4258 36.5238C20.3625 35.7187 22.4795 35.0009 24.6639 34.3265C25.9475 38.5901 27.6364 43.0277 29.7307 47.5743C27.6591 52.099 25.9923 56.5148 24.7314 60.7568C22.5021 60.0822 20.3852 59.3428 18.4258 58.5378ZM30.5414 89.6231C27.4788 87.9265 26.1499 81.4658 27.1862 73.1558C27.434 71.1113 27.8388 68.9575 28.3343 66.7603C32.7485 67.8046 37.5676 68.6097 42.6344 69.1316C45.6744 73.1558 48.8271 76.8103 52.0026 80.008C44.6612 86.5995 37.77 90.2102 33.0859 90.2102C32.0728 90.1888 31.2172 89.9928 30.5414 89.6231ZM83.9579 73.0473C85.0159 81.3569 83.7101 87.8175 80.6697 89.536C79.9944 89.9276 79.1162 90.1018 78.0798 90.1018C73.4184 90.1018 66.5051 86.5124 59.1637 79.9647C62.3165 76.767 65.4692 73.1344 68.4644 69.1097C73.5539 68.5878 78.3729 67.7827 82.7866 66.717C83.3048 68.9142 83.7101 71.0243 83.9579 73.0473ZM92.6276 58.5378C90.691 59.3428 88.574 60.0608 86.3896 60.735C85.106 56.4715 83.4171 52.0338 81.3228 47.4872C83.3949 42.9625 85.0612 38.5468 86.3221 34.3048C88.5519 34.9791 90.6683 35.7187 92.6503 36.5238C100.622 39.8081 105.779 44.1154 105.779 47.5305C105.756 50.9462 100.599 55.2749 92.6276 58.5378Z" fill="#61DAFB"/>
<path d="M55.5154 57.472C61.1995 57.472 65.8071 53.0212 65.8071 47.5305C65.8071 42.0402 61.1995 37.5895 55.5154 37.5895C49.8317 37.5895 45.2242 42.0402 45.2242 47.5305C45.2242 53.0212 49.8317 57.472 55.5154 57.472ZM5.3144 112.156H1.91714V117.808H0V103.837H4.78793C6.41699 103.837 7.66864 104.195 8.54276 104.912C9.42354 105.628 9.86395 106.671 9.86395 108.04C9.86395 108.91 9.61892 109.668 9.12886 110.314C8.64544 110.96 7.96997 111.443 7.10244 111.763L10.4997 117.693V117.808H8.45338L5.3144 112.156ZM1.91714 110.65H4.84755C5.79454 110.65 6.54616 110.413 7.10244 109.939C7.66531 109.466 7.94675 108.833 7.94675 108.04C7.94675 107.176 7.67856 106.514 7.14217 106.053C6.61237 105.593 5.8442 105.359 4.83758 105.353H1.91714V110.65ZM16.7182 118C15.2611 118 14.0757 117.539 13.1619 116.618C12.2479 115.69 11.791 114.453 11.791 112.905V112.578C11.791 111.549 11.993 110.631 12.3969 109.825C12.8076 109.012 13.3771 108.379 14.1055 107.925C14.8406 107.464 15.6353 107.234 16.4896 107.234C17.887 107.234 18.9732 107.678 19.7476 108.567C20.5226 109.456 20.9098 110.729 20.9098 112.386V113.125H13.6287C13.6552 114.149 13.9632 114.977 14.5525 115.611C15.1485 116.237 15.9035 116.551 16.8174 116.551C17.4665 116.551 18.0159 116.423 18.4661 116.167C18.9168 115.911 19.3106 115.572 19.6484 115.15L20.7709 115.994C19.87 117.331 18.5195 118 16.7182 118ZM16.4896 108.692C15.7479 108.692 15.1254 108.954 14.6221 109.479C14.1188 109.997 13.8075 110.727 13.6883 111.667H19.0724V111.533C19.0195 110.631 18.7677 109.933 18.3175 109.44C17.8668 108.942 17.2575 108.692 16.4896 108.692ZM29.6813 117.808C29.5751 117.603 29.489 117.239 29.423 116.714C28.5685 117.571 27.5488 118 26.3634 118C25.3039 118 24.4332 117.712 23.7509 117.136C23.0757 116.554 22.7378 115.818 22.7378 114.929C22.7378 113.848 23.1618 113.01 24.0093 112.415C24.8633 111.814 26.0623 111.513 27.6052 111.513H29.3933V110.698C29.3933 110.077 29.2009 109.584 28.8172 109.22C28.433 108.849 27.8665 108.664 27.1182 108.664C26.4626 108.664 25.9132 108.823 25.4696 109.143C25.0259 109.463 24.8039 109.85 24.8039 110.304H22.9563C22.9563 109.786 23.1451 109.287 23.5223 108.807C23.9065 108.321 24.4232 107.937 25.0723 107.656C25.7279 107.375 26.446 107.234 27.2275 107.234C28.4662 107.234 29.4361 107.534 30.1381 108.136C30.84 108.731 31.2041 109.553 31.2308 110.602V115.38C31.2308 116.334 31.3567 117.091 31.6085 117.654V117.808H29.6813ZM26.6318 116.455C27.2079 116.455 27.7542 116.311 28.2709 116.023C28.787 115.735 29.1612 115.361 29.3933 114.901V112.77H27.9526C25.7012 112.77 24.5753 113.407 24.5753 114.68C24.5753 115.236 24.7676 115.671 25.1513 115.985C25.5355 116.298 26.029 116.455 26.6318 116.455ZM38.4226 116.551C39.0782 116.551 39.6513 116.359 40.1412 115.975C40.6312 115.591 40.9026 115.112 40.9555 114.536H42.6943C42.661 115.131 42.4491 115.697 42.0583 116.234C41.6675 116.772 41.1443 117.2 40.4887 117.52C39.8396 117.84 39.1512 118 38.4226 118C36.9593 118 35.7935 117.53 34.9259 116.589C34.0653 115.642 33.6348 114.35 33.6348 112.713V112.415C33.6348 111.405 33.8266 110.506 34.2108 109.719C34.5951 108.932 35.1444 108.321 35.86 107.886C36.5816 107.451 37.4326 107.234 38.4125 107.234C39.618 107.234 40.6181 107.582 41.4127 108.28C42.2139 108.977 42.6409 109.882 42.6943 110.995H40.9555C40.9026 110.323 40.6378 109.773 40.1609 109.345C39.6911 108.91 39.1079 108.692 38.4125 108.692C37.4789 108.692 36.7538 109.018 36.2372 109.671C35.7276 110.317 35.4723 111.254 35.4723 112.483V112.818C35.4723 114.014 35.7276 114.936 36.2372 115.582C36.7473 116.228 37.4759 116.551 38.4226 116.551ZM47.2535 104.912V107.426H49.2602V108.798H47.2535V115.236C47.2535 115.652 47.3431 115.965 47.5219 116.176C47.7007 116.381 48.0053 116.484 48.4359 116.484C48.6473 116.484 48.9389 116.445 49.3095 116.369V117.808C48.8261 117.936 48.3563 118 47.8991 118C47.0783 118 46.4589 117.76 46.0414 117.28C45.6245 116.8 45.416 116.119 45.416 115.236V108.798H43.4587V107.426H45.416V104.912H47.2535ZM67.8657 117.808H65.9481L58.6672 107.042V117.808H56.7501V103.837H58.6672L65.9682 114.651V103.837H67.8657V117.808ZM77.6004 117.808C77.4942 117.603 77.4081 117.239 77.3421 116.714C76.4876 117.571 75.4679 118 74.2825 118C73.223 118 72.3519 117.712 71.67 117.136C70.9948 116.554 70.6569 115.818 70.6569 114.929C70.6569 113.848 71.0804 113.01 71.9284 112.415C72.7824 111.814 73.9814 111.513 75.5243 111.513H77.3124V110.698C77.3124 110.077 77.12 109.584 76.7358 109.22C76.3521 108.849 75.7856 108.664 75.0373 108.664C74.3817 108.664 73.8323 108.823 73.3887 109.143C72.945 109.463 72.723 109.85 72.723 110.304H70.8754C70.8754 109.786 71.0643 109.287 71.4414 108.807C71.8256 108.321 72.3423 107.937 72.9914 107.656C73.647 107.375 74.3651 107.234 75.1466 107.234C76.3848 107.234 77.3552 107.534 78.0572 108.136C78.7591 108.731 79.1232 109.553 79.1499 110.602V115.38C79.1499 116.334 79.2758 117.091 79.5275 117.654V117.808H77.6004ZM74.5509 116.455C75.127 116.455 75.6733 116.311 76.19 116.023C76.7061 115.735 77.0803 115.361 77.3124 114.901V112.77H75.8717C73.6203 112.77 72.4944 113.407 72.4944 114.68C72.4944 115.236 72.6867 115.671 73.0704 115.985C73.4546 116.298 73.9481 116.455 74.5509 116.455ZM84.5239 104.912V107.426H86.5305V108.798H84.5239V115.236C84.5239 115.652 84.6135 115.965 84.7923 116.176C84.971 116.381 85.2757 116.484 85.7062 116.484C85.9177 116.484 86.2093 116.445 86.5804 116.369V117.808C86.0965 117.936 85.6266 118 85.1694 118C84.3486 118 83.7292 117.76 83.3118 117.28C82.8948 116.8 82.6864 116.119 82.6864 115.236V108.798H80.7295V107.426H82.6864V104.912H84.5239ZM90.6829 117.808H88.8449V107.426H90.6829V117.808ZM88.6958 104.672C88.6958 104.384 88.7855 104.141 88.9642 103.942C89.1495 103.744 89.421 103.645 89.7785 103.645C90.1365 103.645 90.4079 103.744 90.5932 103.942C90.7785 104.141 90.8712 104.384 90.8712 104.672C90.8712 104.959 90.7785 105.199 90.5932 105.391C90.4079 105.583 90.1365 105.679 89.7785 105.679C89.421 105.679 89.1495 105.583 88.9642 105.391C88.7855 105.199 88.6958 104.959 88.6958 104.672ZM97.1793 115.4L99.8411 107.426H101.719L97.8646 117.808H96.4637L92.5702 107.426H94.4475L97.1793 115.4ZM107.808 118C106.351 118 105.166 117.539 104.252 116.618C103.338 115.69 102.881 114.453 102.881 112.905V112.578C102.881 111.549 103.083 110.631 103.487 109.825C103.897 109.012 104.467 108.379 105.195 107.925C105.931 107.464 106.725 107.234 107.579 107.234C108.977 107.234 110.063 107.678 110.838 108.567C111.612 109.456 112 110.729 112 112.386V113.125H104.719C104.745 114.149 105.053 114.977 105.643 115.611C106.238 116.237 106.994 116.551 107.907 116.551C108.556 116.551 109.106 116.423 109.556 116.167C110.006 115.911 110.401 115.572 110.739 115.15L111.861 115.994C110.96 117.331 109.609 118 107.808 118ZM107.579 108.692C106.838 108.692 106.215 108.954 105.712 109.479C105.209 109.997 104.897 110.727 104.778 111.667H110.162V111.533C110.109 110.631 109.857 109.933 109.407 109.44C108.957 108.942 108.348 108.692 107.579 108.692Z" fill="#61DAFB"/>
</svg>
