<svg width="118" height="106" viewBox="0 0 118 106" fill="none" xmlns="http://www.w3.org/2000/svg">
<path d="M69.8712 52.7696C69.8712 55.6845 68.7235 58.48 66.6803 60.5416C64.6371 62.6031 61.8658 63.762 58.9756 63.7633C56.0846 63.7633 53.312 62.605 51.2678 60.5433C49.2236 58.4816 48.0751 55.6853 48.0751 52.7696C48.0751 49.8548 49.2229 47.0592 51.2661 44.9977C53.3093 42.9361 56.0806 41.7772 58.9708 41.7759C61.8617 41.7759 64.6343 42.9342 66.6786 44.9959C68.7228 47.0576 69.8712 49.8539 69.8712 52.7696ZM82.7803 0.210449C76.2185 0.210449 67.6336 4.93045 58.9512 13.1019C50.2738 4.9747 41.684 0.308782 35.1271 0.308782C33.1284 0.308782 31.31 0.766032 29.7354 1.67562C23.0323 5.57453 21.5308 17.7236 24.992 32.9702C10.1525 37.5919 0.5 44.9816 0.5 52.7696C0.5 60.5871 10.2013 67.9965 25.0846 72.5838C21.6526 87.8894 23.1834 100.058 29.9011 103.952C31.4611 104.872 33.2649 105.304 35.2734 105.304C41.8302 105.304 50.42 100.584 59.1024 92.4029C67.7799 100.535 76.3696 105.201 82.9265 105.201C84.9253 105.201 86.7436 104.758 88.3183 103.849C95.0165 99.9549 96.5229 87.8058 93.0616 72.5543C107.847 67.9719 117.5 60.5674 117.5 52.7696C117.5 44.9521 107.799 37.5427 92.9154 32.9456C96.3474 17.6548 94.8166 5.4762 88.0989 1.57728C86.5486 0.672616 84.7497 0.215366 82.7803 0.210449ZM82.7559 5.56962V5.59912C83.8527 5.59912 84.7351 5.81545 85.4761 6.22353C88.7229 8.1017 90.1317 15.2456 89.0349 24.4349C88.7716 26.6965 88.3426 29.0811 87.8161 31.5149C83.1361 30.3545 78.0369 29.4646 72.6695 28.8894C69.452 24.4398 66.1126 20.3983 62.7489 16.8583C70.5099 9.58161 77.798 5.58928 82.7607 5.57453L82.7559 5.56962ZM35.1271 5.66795C40.0606 5.66795 47.3829 9.64061 55.1634 16.8779C51.8191 20.4179 48.4846 24.4349 45.3159 28.8844C39.9193 29.4597 34.8151 30.3496 30.14 31.5296C29.594 29.1204 29.1894 26.7899 28.9018 24.5479C27.7805 15.3636 29.165 8.22462 32.3825 6.32187C33.3088 5.87937 34.3325 5.69253 35.1271 5.66795ZM58.9269 20.6638C61.145 22.9648 63.3631 25.5411 65.5569 28.3534C63.4119 28.2551 61.2181 28.1863 59 28.1863C56.7575 28.1863 54.5394 28.2354 52.37 28.3534C54.515 25.5411 56.7331 22.9697 58.9269 20.6638ZM59 33.575C62.6075 33.575 66.2004 33.7421 69.7347 34.0322C71.714 36.8937 73.6445 39.9469 75.5019 43.1772C77.3154 46.3239 78.9631 49.5197 80.4646 52.745C78.9631 55.9654 77.3154 59.1859 75.5263 62.3325C73.6738 65.5775 71.7579 68.6652 69.7738 71.5267C66.2247 71.8364 62.627 72.0085 59 72.0085C55.3925 72.0085 51.7996 71.8364 48.2653 71.5513C46.286 68.6898 44.3555 65.6316 42.4981 62.4063C40.6846 59.2596 39.0369 56.0638 37.5354 52.8384C39.0125 49.6082 40.6846 46.3829 42.4737 43.2313C44.3262 39.9863 46.2421 36.9084 48.2262 34.0469C51.7752 33.7323 55.373 33.5651 59 33.5651V33.575ZM41.2794 34.8238C40.1094 36.6774 38.9394 38.5752 37.8474 40.5271C36.7505 42.4446 35.7267 44.3719 34.7518 46.2993C33.4599 43.0739 32.363 39.8584 31.4562 36.7265C34.5762 35.989 37.8669 35.3302 41.2794 34.8238ZM76.6719 34.8238C80.06 35.3302 83.3263 35.9546 86.4511 36.7265C85.5736 39.8339 84.4768 43.0297 83.2336 46.2304C82.2586 44.3129 81.2349 42.3807 80.1136 40.4583C79.0167 38.5309 77.8467 36.6528 76.6768 34.8238H76.6719ZM91.604 38.1425C93.9635 38.88 96.206 39.7011 98.3071 40.591C106.751 44.2294 112.211 48.9887 112.211 52.7647C112.186 56.5407 106.726 61.3197 98.2828 64.9334C96.2353 65.8184 93.9927 66.6149 91.6771 67.3574C90.3121 62.6472 88.5279 57.7404 86.3146 52.7057C88.5084 47.7054 90.2634 42.8232 91.604 38.1327V38.1425ZM26.3034 38.1622C27.6586 42.8822 29.4478 47.7841 31.6659 52.8139C29.4721 57.8141 27.7074 62.6964 26.3716 67.3869C24.0121 66.6494 21.7696 65.8234 19.6929 64.9285C11.2494 61.3049 5.78938 56.5407 5.78938 52.7647C5.78938 48.9887 11.2494 44.1999 19.6929 40.591C21.7404 39.706 23.9829 38.9095 26.3034 38.1622ZM83.2336 59.2055C84.5255 62.4358 85.6224 65.6562 86.5291 68.7832C83.4091 69.5551 80.1136 70.209 76.7011 70.7007C77.8711 68.8569 79.0411 66.9542 80.138 65.0072C81.2349 63.0897 82.2538 61.1329 83.2336 59.2055ZM34.7518 59.3039C35.7267 61.2312 36.7505 63.1536 37.8717 65.0809C38.993 66.9985 40.1386 68.8766 41.3086 70.7007C37.9205 70.1992 34.6542 69.5699 31.5294 68.8029C32.4069 65.7054 33.5086 62.4997 34.7469 59.2989L34.7518 59.3039ZM87.86 73.9899C88.406 76.4139 88.835 78.7493 89.0983 80.9864C90.2195 90.1707 88.835 97.3097 85.6175 99.2174C84.9009 99.6599 83.9697 99.8467 82.8729 99.8467C77.9394 99.8467 70.6171 95.879 62.8366 88.6367C66.1809 85.0967 69.5154 81.0847 72.6841 76.64C78.0807 76.0599 83.1849 75.1699 87.86 73.9899ZM30.1888 74.0391C34.8688 75.1896 39.968 76.0795 45.3354 76.6548C48.5529 81.1044 51.8923 85.1459 55.256 88.681C47.4804 95.9724 40.1825 99.9647 35.2197 99.9647C34.1473 99.9401 33.2405 99.7189 32.5239 99.3157C29.2771 97.4474 27.8683 90.2985 28.9651 81.1093C29.2284 78.8476 29.6623 76.4679 30.1888 74.0391ZM52.4187 77.1858C54.5637 77.2841 56.7575 77.3529 58.9756 77.3529C61.2181 77.3529 63.4362 77.3038 65.6056 77.1858C63.4606 79.9981 61.2425 82.5695 59.0488 84.8804C56.8306 82.5695 54.6125 79.9981 52.4187 77.1858Z" fill="#087EA4"/>
</svg>
