<svg width="234" height="140" viewBox="0 0 234 140" fill="none" xmlns="http://www.w3.org/2000/svg">
<g clip-path="url(#clip0_212_131)">
<path d="M69.6102 92.3828L76.7218 112.635C78.3194 117.234 78.9858 120.444 78.7192 122.273C82.6088 113.131 85.326 103.167 86.872 92.3828H95.423C91.7464 109.939 86.8968 122.698 80.8772 130.656C76.1871 136.789 71.049 139.855 65.4541 139.855C63.9626 139.855 62.1234 139.46 59.9409 138.674V134.442C61.0071 134.58 62.2582 134.653 63.697 134.653C66.3072 134.653 68.4107 134.018 70.0111 132.751C71.9276 131.207 72.8867 129.472 72.8867 127.548C72.8867 126.235 72.1386 123.539 70.6492 119.462L60.7405 92.3828H69.6102ZM15.1844 79.9346L28.2102 114.817H28.2901L41.3958 79.9346H52.1032C54.4477 97.2336 55.8323 113.062 56.2576 127.409H47.2301C46.9126 113.997 46.0325 101.386 44.5939 89.5725H44.5144L30.7679 127.409H23.8935L10.2302 89.5725H10.1497C9.13592 100.918 8.49811 113.529 8.23212 127.409H0C0.531976 110.529 1.86331 94.7053 3.994 79.9346H15.1844Z" fill="#00758F"/>
<path d="M161.103 79.2301C175.114 79.2301 182.12 87.0873 182.12 102.793C182.12 111.328 180.013 117.775 175.803 122.13C175.044 122.926 174.206 123.614 173.323 124.251L183.238 128.554L183.228 128.553L179.708 133.889L166.796 127.276C164.655 127.833 162.3 128.111 159.734 128.111C152.854 128.111 147.715 126.351 144.317 122.836C140.588 118.947 138.725 112.825 138.725 104.48C138.725 95.9938 140.828 89.5714 145.039 85.2106C148.874 81.2217 154.23 79.2301 161.103 79.2301ZM118.196 79.2995C123.204 79.2995 127.758 80.4757 131.859 82.8196L129.776 86.8938C126.266 85.5844 122.806 84.9271 119.394 84.9271C116.625 84.9271 114.492 85.5121 113.005 86.6889C111.509 87.8555 110.584 89.3568 110.584 91.1866C110.584 93.9982 112.867 96.437 117.081 98.4974C118.215 99.0385 119.691 99.7599 121.208 100.508L121.523 100.663C121.575 100.689 121.628 100.715 121.68 100.74L121.995 100.896C122.048 100.922 122.1 100.948 122.153 100.974L122.467 101.129C125.657 102.708 128.659 104.215 128.659 104.215C132.873 106.84 134.973 109.639 134.973 114.25C134.973 118.276 133.292 121.581 129.942 124.167C126.588 126.742 122.083 128.033 116.442 128.033C111.165 128.033 106.051 126.547 101.098 123.6L103.415 119.522C107.678 121.397 111.535 122.334 114.999 122.334C118.248 122.334 120.791 121.697 122.63 120.44C124.466 119.174 125.566 117.408 125.566 115.168C125.566 112.349 123.332 109.939 119.234 107.918C118.17 107.404 116.807 106.733 115.397 106.034L115.083 105.878C114.507 105.592 113.925 105.302 113.357 105.018L113.048 104.864C110.281 103.483 107.888 102.276 107.888 102.276C103.791 99.6454 101.737 96.8233 101.737 92.1733C101.737 88.3276 103.269 85.2191 106.329 82.8541C109.395 80.4844 113.351 79.2995 118.196 79.2995ZM198.586 79.9346V121.569H215.605V127.409H189.955V79.9346H198.586ZM225.062 121.587V122.574H223.191V127.404H221.76V122.574H219.816V121.587H225.062ZM228.517 121.587L230.314 125.552L231.964 121.587H233.992V127.404H232.644V122.977L230.765 127.404H229.793L227.912 122.977H227.839V127.404H226.564V121.587H228.517ZM160.221 85.0685C151.964 85.0685 147.834 91.0495 147.834 103.004C147.834 109.851 148.928 114.817 151.113 117.912C153.137 120.776 156.306 122.205 160.622 122.205C168.879 122.205 173.009 116.178 173.009 104.128C173.009 97.376 171.915 92.4531 169.733 89.3571C167.706 86.499 164.538 85.0685 160.221 85.0685Z" fill="#F29111"/>
<path d="M138.58 2.94169C141.319 -2.9656 150.896 1.50776 154.613 3.57164C155.524 4.08761 156.568 5.17838 157.613 5.58159C159.242 5.63797 160.87 5.7495 162.502 5.80955C165.563 6.44072 168.43 6.95669 170.842 8.16266C182.053 13.9572 189.35 19.862 196.067 29.6152C197.501 31.6815 198.218 33.917 199.391 36.1525C201.017 39.4848 202.846 42.9826 204.734 46.134C205.58 47.6277 206.234 49.289 207.408 50.5505C207.866 51.1273 209.168 51.2972 209.947 51.642C212.098 52.6195 214.705 53.3616 216.729 54.5091C220.508 56.5772 224.163 59.0419 227.484 61.5649C228.722 62.5391 229.566 63.9179 230.745 64.9481V65.468C229.698 65.75 228.655 66.0387 227.611 66.2699C225.33 66.7846 223.309 66.6682 221.096 67.1829C219.729 67.5309 218.031 67.9905 216.597 68.1069C216.661 68.1634 216.729 68.2242 216.729 68.2242C217.573 70.3401 222.138 72.0612 224.225 73.3265C226.761 74.9327 229.111 76.8812 231.002 79.1179C231.655 79.689 232.308 80.2085 232.958 80.7777C233.412 81.3545 233.54 82.1004 234 82.6152V82.7888C233.491 82.6312 233.125 82.3306 232.778 82.0159L232.571 81.8264C232.364 81.6373 232.155 81.4524 231.917 81.2995C230.478 80.4368 229.049 79.4051 227.611 78.6032C225.137 77.2259 222.269 76.4264 219.729 75.0438C218.293 74.2409 216.924 73.3265 215.555 72.4083C214.314 71.6031 212.948 70.0568 212.168 68.9096C211.709 68.2759 211.646 67.5309 211.121 67.0727C211.215 66.3068 212.014 66.0791 212.821 65.8921L213.006 65.8494C213.284 65.7858 213.557 65.7226 213.795 65.6389C217.183 64.376 221.223 63.9179 226.44 64.0327C226.243 62.8829 222.983 61.4505 221.943 60.7621C219.854 59.4407 217.642 58.0619 215.427 56.8594C214.253 56.2293 212.229 55.7697 210.929 55.2551C209.168 54.6237 205.257 53.9926 204.282 52.7901C202.625 50.8943 201.435 48.633 200.279 46.3486L199.965 45.7253C199.86 45.5175 199.755 45.3098 199.65 45.1024C198.284 42.3518 196.588 39.484 195.219 36.6676C194.503 35.2937 194.174 34.0877 193.39 32.7702C188.634 24.6839 181.595 17.9137 173.059 13.1524C170.255 11.6032 167.127 10.1693 163.675 9.19497C161.718 8.67655 159.37 8.96334 157.285 8.56502H155.914C154.742 8.27579 153.765 7.18623 152.851 6.61145C150.833 5.40915 148.813 4.6015 146.399 3.74359C145.554 3.3992 143.139 2.59769 142.297 3.22885C141.775 3.34405 141.51 3.51687 141.382 3.97646C140.862 4.66279 141.319 5.69595 141.642 6.32835C142.621 8.16182 143.989 9.25136 145.23 10.8005C146.334 12.1744 147.706 13.7235 148.488 15.2175C150.178 18.4285 150.964 21.9864 152.53 25.1974C153.11 26.4046 154.028 27.7785 154.873 28.868C155.589 29.732 156.891 30.3571 157.285 31.4515C158.071 32.5987 156.11 36.3845 155.656 37.5868C153.958 42.2909 154.287 48.8298 156.242 52.9077C156.277 52.9789 156.312 53.0506 156.347 53.1228L156.451 53.3403C157.165 54.8337 157.929 56.4419 159.827 56.8598C159.958 56.7458 159.827 56.8057 160.086 56.7458C160.546 53.5894 160.675 50.55 161.914 48.0806C162.63 46.5366 164.06 45.4451 165.041 44.1846C165.694 44.5278 165.694 45.5633 166.084 46.2484C166.932 48.0255 167.843 49.974 168.889 51.7563C171.035 55.4269 173.449 58.9854 176.186 62.1963C177.102 63.3428 178.403 64.6053 179.575 65.6385C180.098 66.0382 180.683 66.2694 181.075 66.7841H181.203V66.9574C179.248 66.3245 178.009 64.5493 176.449 63.5128C173.513 61.5644 169.997 58.6383 167.974 55.8305C167.127 54.219 166.212 52.6741 165.3 51.0703V50.9544C164.91 51.4127 165.041 51.8674 164.846 52.5606C163.999 55.4269 164.651 58.6967 161.718 59.7274C158.394 60.9348 155.914 57.7789 154.873 56.3451C151.548 51.585 150.637 43.555 152.982 37.0729C153.503 35.6377 153.574 33.917 154.483 32.7711C154.287 31.7355 153.378 31.4524 152.851 30.8175C151.939 29.7329 151.158 28.4693 150.444 27.2646C149.072 24.9114 148.096 22.1 147.054 19.5765C146.596 18.5458 146.465 17.5114 146.008 16.5358C145.23 15.0467 143.794 13.5528 142.687 12.2353C141.187 10.3417 136.82 6.67236 138.58 2.94169ZM159.956 14.1797C160.13 14.3329 160.341 14.4669 160.558 14.5987L160.821 14.7569C161.17 14.9692 161.509 15.1932 161.717 15.4985C162.045 15.9017 162.107 16.3 162.501 16.7045C162.501 18.0832 162.045 19 161.126 19.5711C161.126 19.5711 161.064 19.6312 160.999 19.6875C160.479 18.7683 160.022 17.8541 159.497 16.9361C158.851 16.1346 157.937 15.4985 157.411 14.583H157.284V14.4678C158.071 14.2974 158.851 14.1797 159.956 14.1797Z" fill="#00758F"/>
</g>
<defs>
<clipPath id="clip0_212_131">
<rect width="234" height="140" fill="white"/>
</clipPath>
</defs>
</svg>
