<svg width="134" height="89" viewBox="0 0 134 89" fill="none" xmlns="http://www.w3.org/2000/svg">
<path d="M67 0.25C49.3359 0.25 38.4258 9.96429 33.75 29.3929C40.5039 19.6786 48.2969 16.25 57.1289 18.5357C62.3242 19.6786 65.4414 23.6786 69.5977 28.25C76.3516 35.6786 83.625 44.25 100.25 44.25C117.914 44.25 128.824 34.5357 133.5 15.1071C126.746 24.8214 118.953 28.25 110.121 25.9643C104.926 24.25 101.809 20.25 97.6523 15.6786C90.8984 8.82143 83.625 0.25 67 0.25ZM33.75 44.25C16.0859 44.25 5.17578 53.9643 0.5 73.3929C7.25391 63.6786 15.0469 60.25 23.8789 62.5357C29.0742 63.6786 32.1914 67.6786 36.3477 72.25C43.1016 79.6786 50.375 88.25 67 88.25C84.6641 88.25 95.5742 78.5357 100.25 58.5357C93.4961 68.25 85.7031 72.25 76.8711 69.9643C71.6758 68.25 68.5586 64.25 64.4023 59.6786C57.6484 52.8214 50.375 44.25 33.75 44.25Z" fill="url(#paint0_linear_36_15)"/>
<defs>
<linearGradient id="paint0_linear_36_15" x1="-371.9" y1="2816.25" x2="11647.6" y2="9107.14" gradientUnits="userSpaceOnUse">
<stop stop-color="#2298BD"/>
<stop offset="1" stop-color="#0ED7B5"/>
</linearGradient>
</defs>
</svg>
