<svg width="99" height="100" viewBox="0 0 99 100" fill="none" xmlns="http://www.w3.org/2000/svg">
<path d="M0.5 0.5H98.5V99.5H0.5" fill="#226AB9"/>
<path d="M45.0977 55.4141H57.3477V47.4863H23.0859V55.4141H35.3359V90.7988H45.0977V55.4141ZM61.1758 88.8652C64.6268 90.6461 69.2742 91.2822 73.4258 91.2822C77.0051 91.2822 81.6429 90.8124 85.293 88.4979C86.8434 87.4731 88.1641 86.1775 88.9297 84.4373C89.6953 82.6971 90.2887 80.7635 90.2887 78.2498C90.2714 70.2931 84.6824 67.6557 79.168 65.1014C76.6644 63.9509 71.0332 62.0927 71.0332 58.5078C71.0332 55.619 74.2507 54.1514 78.3449 54.1379C81.5376 54.1379 85.8289 55.1878 88.4895 57.162V48.0741C84.8968 46.68 81.1318 46.419 77.7707 46.4113C68.3439 46.4113 60.992 50.3403 60.927 59.3277C61.0207 66.1165 65.0077 69.0807 70.8801 71.896C74.0785 73.3578 79.9853 75.2295 80.0293 79.2824C79.8896 83.0664 75.3245 83.6426 72.6793 83.6716C68.5526 83.6716 64.1885 82.088 61.1758 79.584V88.8652Z" fill="white"/>
</svg>
