<svg width="44" height="44" viewBox="0 0 44 44" fill="none" xmlns="http://www.w3.org/2000/svg">
<g clip-path="url(#clip0_23_363)">
<path d="M22.0002 43.9996C34.1504 43.9996 44 34.15 44 21.9998C44 9.84965 34.1504 0 22.0002 0C9.85005 0 0.000396729 9.84965 0.000396729 21.9998C0.000396729 34.15 9.85005 43.9996 22.0002 43.9996Z" fill="#55ACEE"/>
<path d="M35.4758 15.8106C34.5331 16.2287 33.5189 16.5114 32.4554 16.6377C33.5413 15.9871 34.3746 14.9576 34.768 13.729C33.7519 14.3318 32.626 14.769 31.4287 15.0047C30.4694 13.9831 29.1027 13.3447 27.5894 13.3447C24.6858 13.3447 22.3308 15.6996 22.3308 18.6032C22.3308 19.0154 22.3775 19.4166 22.4677 19.8017C18.0973 19.5825 14.2223 17.4891 11.6285 14.3067C11.176 15.0831 10.9164 15.9871 10.9164 16.9506C10.9164 18.7746 11.8454 20.3849 13.2556 21.3276C12.3941 21.3006 11.5827 21.0641 10.874 20.6692C10.8736 20.6915 10.8736 20.7139 10.8736 20.7358C10.8736 23.2838 12.687 25.4089 15.0922 25.8917C14.6514 26.0125 14.1859 26.0764 13.707 26.0764C13.3674 26.0764 13.0384 26.0438 12.7176 25.9826C13.3866 28.0713 15.3283 29.5918 17.6299 29.6345C15.8298 31.0451 13.5627 31.8856 11.0983 31.8856C10.6748 31.8856 10.2552 31.8608 9.84457 31.8118C12.1705 33.3044 14.9353 34.1746 17.9048 34.1746C27.5772 34.1746 32.8668 26.1619 32.8668 19.2123C32.8668 18.9844 32.8617 18.7574 32.8515 18.5323C33.8797 17.7911 34.7711 16.8652 35.4758 15.8106Z" fill="#F1F2F2"/>
</g>
<defs>
<clipPath id="clip0_23_363">
<rect width="44" height="44" fill="white"/>
</clipPath>
</defs>
</svg>
